<?xml version="1.0" encoding="UTF-8"?>
<svg id="Layer_2" data-name="Layer 2" xmlns="http://www.w3.org/2000/svg" fill="#fff" viewBox="0 0 909.2 507.24">
  <g id="Layer_1-2" data-name="Layer 1">
    <g>
      <path d="M292.54,84.78L174.18,6.01c-12.04-8.01-27.74-8.01-39.82,0L16.03,84.78C6,91.43,0,102.67,0,114.68v277.88c0,12.04,6,23.25,16.03,29.93l118.33,78.73c12.07,8.01,27.78,8.01,39.82,0l118.37-78.73c9.99-6.68,16.03-17.9,16.03-29.93V114.68c0-12-6.04-23.25-16.03-29.9ZM266.35,393.17l-112.08,74.1v-130.62l-70.18-50.16v-124.77l182.26,124.77v106.69ZM267.86,243.14l-113.59-79.74V43.63l113.59,75.25v124.26Z"/>
      <g>
        <path d="M443.46,212.33c0-4.38-1.54-7.73-4.63-10.08-3.09-2.34-8.65-4.81-16.68-7.41-8.03-2.6-14.39-5.16-19.07-7.68-12.77-6.9-19.15-16.19-19.15-27.88,0-6.07,1.71-11.49,5.13-16.26,3.43-4.76,8.34-8.48,14.75-11.16,6.41-2.68,13.6-4.02,21.58-4.02s15.19,1.45,21.47,4.36c6.28,2.91,11.16,7.02,14.63,12.32,3.48,5.3,5.21,11.33,5.21,18.07h-23.17c0-5.15-1.62-9.15-4.87-12.01-3.24-2.86-7.8-4.29-13.67-4.29s-10.07,1.2-13.21,3.59c-3.14,2.39-4.71,5.55-4.71,9.46,0,3.66,1.84,6.72,5.52,9.19,3.68,2.47,9.1,4.79,16.25,6.95,13.18,3.96,22.78,8.88,28.8,14.75s9.04,13.18,9.04,21.93c0,9.73-3.68,17.36-11.04,22.9-7.36,5.54-17.27,8.3-29.73,8.3-8.65,0-16.53-1.58-23.63-4.75s-12.52-7.5-16.25-13.01c-3.73-5.51-5.6-11.89-5.6-19.15h23.24c0,12.41,7.41,18.61,22.24,18.61,5.51,0,9.81-1.12,12.9-3.36,3.09-2.24,4.63-5.37,4.63-9.38Z"/>
        <path d="M570.65,204.38c-.88,12.1-5.34,21.62-13.4,28.57-8.06,6.95-18.68,10.43-31.86,10.43-14.42,0-25.75-4.85-34.02-14.56-8.26-9.7-12.39-23.03-12.39-39.96v-6.87c0-10.81,1.9-20.33,5.71-28.57,3.81-8.24,9.25-14.56,16.33-18.96,7.08-4.4,15.3-6.6,24.67-6.6,12.97,0,23.42,3.48,31.35,10.43,7.93,6.95,12.51,16.71,13.75,29.27h-23.17c-.57-7.26-2.59-12.52-6.06-15.79-3.47-3.27-8.76-4.9-15.87-4.9-7.72,0-13.5,2.77-17.34,8.3-3.83,5.54-5.8,14.12-5.91,25.75v8.49c0,12.15,1.84,21.03,5.52,26.64,3.68,5.61,9.48,8.42,17.41,8.42,7.15,0,12.5-1.63,16.02-4.9,3.53-3.27,5.55-8.33,6.06-15.17h23.17Z"/>
        <path d="M627.48,200.67h-18.46v41.16h-23.17v-112.44h41.78c13.28,0,23.53,2.96,30.74,8.88,7.21,5.92,10.81,14.29,10.81,25.1,0,7.67-1.66,14.07-4.98,19.19-3.32,5.12-8.35,9.2-15.1,12.24l24.33,45.95v1.08h-24.87l-21.08-41.16ZM609.03,181.9h18.69c5.82,0,10.32-1.48,13.51-4.44,3.19-2.96,4.79-7.04,4.79-12.24s-1.5-9.47-4.52-12.51c-3.01-3.04-7.63-4.56-13.86-4.56h-18.61v33.75Z"/>
        <path d="M771.89,129.39v74.06c0,12.31-3.85,22.04-11.55,29.19-7.69,7.16-18.21,10.73-31.54,10.73s-23.55-3.48-31.28-10.43c-7.72-6.95-11.66-16.5-11.82-28.65v-74.91h23.17v74.21c0,7.36,1.76,12.73,5.29,16.1,3.53,3.37,8.41,5.06,14.64,5.06,13.02,0,19.64-6.85,19.85-20.54v-74.83h23.24Z"/>
        <path d="M821.16,129.39l28.88,81.55,28.73-81.55h30.43v112.44h-23.24v-30.74l2.32-53.05-30.35,83.79h-15.91l-30.27-83.71,2.32,52.98v30.74h-23.17v-112.44h30.27Z"/>
      </g>
      <g>
        <path d="M403.61,338.23v39.62h-23.17v-112.44h43.86c8.44,0,15.87,1.54,22.28,4.63,6.41,3.09,11.34,7.48,14.79,13.17,3.45,5.69,5.17,12.16,5.17,19.42,0,11.02-3.77,19.71-11.31,26.06-7.54,6.36-17.98,9.54-31.31,9.54h-20.31ZM403.61,319.46h20.7c6.13,0,10.8-1.44,14.02-4.32,3.22-2.88,4.83-7,4.83-12.36s-1.62-9.96-4.87-13.36-7.72-5.15-13.44-5.25h-21.24v35.29Z"/>
        <path d="M574.82,324.17c0,11.07-1.96,20.77-5.87,29.11-3.91,8.34-9.51,14.78-16.8,19.31-7.28,4.53-15.64,6.8-25.06,6.8s-17.64-2.24-24.94-6.72c-7.31-4.48-12.97-10.87-16.99-19.19-4.02-8.31-6.05-17.88-6.1-28.69v-5.56c0-11.07,2-20.81,5.99-29.23,3.99-8.42,9.63-14.88,16.91-19.38,7.29-4.5,15.61-6.76,24.98-6.76s17.7,2.25,24.98,6.76c7.28,4.51,12.92,10.97,16.91,19.38,3.99,8.42,5.99,18.14,5.99,29.15v5.02ZM551.34,319.08c0-11.79-2.11-20.75-6.33-26.87-4.22-6.13-10.25-9.19-18.07-9.19s-13.77,3.03-17.99,9.07c-4.22,6.05-6.36,14.92-6.41,26.6v5.48c0,11.48,2.11,20.39,6.33,26.72,4.22,6.33,10.3,9.5,18.23,9.5s13.75-3.05,17.92-9.15c4.17-6.1,6.28-14.99,6.33-26.68v-5.48Z"/>
        <path d="M626.87,332.75l-12.05,12.97v32.13h-23.17v-112.44h23.17v50.97l10.19-13.98,28.65-36.99h28.5l-39.93,49.96,41.08,62.47h-27.57l-28.88-45.1Z"/>
        <path d="M759.69,329.12h-44.48v30.12h52.2v18.61h-75.37v-112.44h75.22v18.77h-52.05v26.8h44.48v18.15Z"/>
        <path d="M822.63,336.68h-18.46v41.16h-23.17v-112.44h41.78c13.28,0,23.53,2.96,30.74,8.88,7.21,5.92,10.81,14.29,10.81,25.1,0,7.67-1.66,14.07-4.98,19.19-3.32,5.12-8.35,9.2-15.1,12.24l24.33,45.95v1.08h-24.87l-21.08-41.16ZM804.17,317.92h18.69c5.82,0,10.32-1.48,13.51-4.44,3.19-2.96,4.79-7.04,4.79-12.24s-1.5-9.47-4.52-12.51c-3.01-3.04-7.63-4.56-13.86-4.56h-18.61v33.75Z"/>
      </g>
    </g>
  </g>
</svg>